<svg width="68" height="23" viewBox="0 0 68 23" fill="none" xmlns="http://www.w3.org/2000/svg">
<path d="M11.096 15.336V18H0.932V0.647999H4.16V15.336H11.096ZM16.0048 5.688V18H13.0288V5.688H16.0048ZM16.4128 2.1C16.4128 2.356 16.3608 2.596 16.2568 2.82C16.1528 3.044 16.0128 3.24 15.8368 3.408C15.6688 3.576 15.4688 3.712 15.2368 3.816C15.0048 3.912 14.7568 3.96 14.4928 3.96C14.2368 3.96 13.9928 3.912 13.7608 3.816C13.5368 3.712 13.3408 3.576 13.1728 3.408C13.0048 3.24 12.8688 3.044 12.7648 2.82C12.6688 2.596 12.6208 2.356 12.6208 2.1C12.6208 1.836 12.6688 1.588 12.7648 1.356C12.8688 1.124 13.0048 0.924 13.1728 0.756C13.3408 0.587999 13.5368 0.455999 13.7608 0.36C13.9928 0.256 14.2368 0.204 14.4928 0.204C14.7568 0.204 15.0048 0.256 15.2368 0.36C15.4688 0.455999 15.6688 0.587999 15.8368 0.756C16.0128 0.924 16.1528 1.124 16.2568 1.356C16.3608 1.588 16.4128 1.836 16.4128 2.1ZM23.5265 11.544C23.8945 11.544 24.2145 11.496 24.4865 11.4C24.7585 11.296 24.9825 11.156 25.1585 10.98C25.3425 10.804 25.4785 10.592 25.5665 10.344C25.6625 10.096 25.7105 9.824 25.7105 9.528C25.7105 8.92 25.5265 8.44 25.1585 8.088C24.7985 7.728 24.2545 7.548 23.5265 7.548C22.7985 7.548 22.2505 7.728 21.8825 8.088C21.5225 8.44 21.3425 8.92 21.3425 9.528C21.3425 9.816 21.3865 10.084 21.4745 10.332C21.5705 10.58 21.7065 10.796 21.8825 10.98C22.0665 11.156 22.2945 11.296 22.5665 11.4C22.8465 11.496 23.1665 11.544 23.5265 11.544ZM26.8745 18.552C26.8745 18.312 26.8025 18.116 26.6585 17.964C26.5145 17.812 26.3185 17.696 26.0705 17.616C25.8225 17.528 25.5305 17.464 25.1945 17.424C24.8665 17.384 24.5145 17.356 24.1385 17.34C23.7705 17.316 23.3865 17.296 22.9865 17.28C22.5945 17.264 22.2105 17.232 21.8345 17.184C21.5065 17.368 21.2385 17.584 21.0305 17.832C20.8305 18.08 20.7305 18.368 20.7305 18.696C20.7305 18.912 20.7825 19.112 20.8865 19.296C20.9985 19.488 21.1705 19.652 21.4025 19.788C21.6425 19.924 21.9505 20.028 22.3265 20.1C22.7025 20.18 23.1625 20.22 23.7065 20.22C24.2585 20.22 24.7345 20.176 25.1345 20.088C25.5345 20.008 25.8625 19.892 26.1185 19.74C26.3825 19.596 26.5745 19.42 26.6945 19.212C26.8145 19.012 26.8745 18.792 26.8745 18.552ZM29.8265 6.108V7.212C29.8265 7.564 29.6145 7.78 29.1905 7.86L28.0865 8.064C28.2545 8.488 28.3385 8.952 28.3385 9.456C28.3385 10.064 28.2145 10.616 27.9665 11.112C27.7265 11.6 27.3905 12.016 26.9585 12.36C26.5265 12.704 26.0145 12.972 25.4225 13.164C24.8385 13.348 24.2065 13.44 23.5265 13.44C23.2865 13.44 23.0545 13.428 22.8305 13.404C22.6065 13.38 22.3865 13.348 22.1705 13.308C21.7865 13.54 21.5945 13.8 21.5945 14.088C21.5945 14.336 21.7065 14.52 21.9305 14.64C22.1625 14.752 22.4665 14.832 22.8425 14.88C23.2185 14.928 23.6465 14.96 24.1265 14.976C24.6065 14.984 25.0985 15.008 25.6025 15.048C26.1065 15.088 26.5985 15.16 27.0785 15.264C27.5585 15.36 27.9865 15.516 28.3625 15.732C28.7385 15.948 29.0385 16.244 29.2625 16.62C29.4945 16.988 29.6105 17.464 29.6105 18.048C29.6105 18.592 29.4745 19.12 29.2025 19.632C28.9385 20.144 28.5505 20.6 28.0385 21C27.5345 21.4 26.9105 21.72 26.1665 21.96C25.4305 22.208 24.5905 22.332 23.6465 22.332C22.7185 22.332 21.9105 22.24 21.2225 22.056C20.5345 21.88 19.9625 21.64 19.5065 21.336C19.0505 21.04 18.7105 20.696 18.4865 20.304C18.2625 19.912 18.1505 19.504 18.1505 19.08C18.1505 18.504 18.3225 18.024 18.6665 17.64C19.0185 17.248 19.4985 16.936 20.1065 16.704C19.7785 16.536 19.5185 16.312 19.3265 16.032C19.1345 15.752 19.0385 15.384 19.0385 14.928C19.0385 14.744 19.0705 14.556 19.1345 14.364C19.2065 14.164 19.3065 13.968 19.4345 13.776C19.5705 13.584 19.7385 13.404 19.9385 13.236C20.1385 13.06 20.3745 12.904 20.6465 12.768C20.0225 12.432 19.5305 11.984 19.1705 11.424C18.8185 10.864 18.6425 10.208 18.6425 9.456C18.6425 8.848 18.7625 8.3 19.0025 7.812C19.2505 7.316 19.5905 6.896 20.0225 6.552C20.4625 6.2 20.9785 5.932 21.5705 5.748C22.1705 5.564 22.8225 5.472 23.5265 5.472C24.0545 5.472 24.5505 5.528 25.0145 5.64C25.4785 5.744 25.9025 5.9 26.2865 6.108H29.8265ZM36.1828 11.544C36.5508 11.544 36.8708 11.496 37.1428 11.4C37.4148 11.296 37.6388 11.156 37.8148 10.98C37.9988 10.804 38.1348 10.592 38.2228 10.344C38.3188 10.096 38.3668 9.824 38.3668 9.528C38.3668 8.92 38.1828 8.44 37.8148 8.088C37.4548 7.728 36.9108 7.548 36.1828 7.548C35.4548 7.548 34.9068 7.728 34.5388 8.088C34.1788 8.44 33.9988 8.92 33.9988 9.528C33.9988 9.816 34.0428 10.084 34.1308 10.332C34.2268 10.58 34.3628 10.796 34.5388 10.98C34.7228 11.156 34.9508 11.296 35.2228 11.4C35.5028 11.496 35.8228 11.544 36.1828 11.544ZM39.5308 18.552C39.5308 18.312 39.4588 18.116 39.3148 17.964C39.1708 17.812 38.9748 17.696 38.7268 17.616C38.4788 17.528 38.1868 17.464 37.8508 17.424C37.5228 17.384 37.1708 17.356 36.7948 17.34C36.4268 17.316 36.0428 17.296 35.6428 17.28C35.2508 17.264 34.8668 17.232 34.4908 17.184C34.1628 17.368 33.8948 17.584 33.6868 17.832C33.4868 18.08 33.3867 18.368 33.3867 18.696C33.3867 18.912 33.4388 19.112 33.5428 19.296C33.6548 19.488 33.8268 19.652 34.0588 19.788C34.2988 19.924 34.6068 20.028 34.9828 20.1C35.3588 20.18 35.8188 20.22 36.3628 20.22C36.9148 20.22 37.3908 20.176 37.7908 20.088C38.1908 20.008 38.5188 19.892 38.7748 19.74C39.0388 19.596 39.2308 19.42 39.3508 19.212C39.4708 19.012 39.5308 18.792 39.5308 18.552ZM42.4828 6.108V7.212C42.4828 7.564 42.2708 7.78 41.8468 7.86L40.7428 8.064C40.9108 8.488 40.9948 8.952 40.9948 9.456C40.9948 10.064 40.8708 10.616 40.6228 11.112C40.3828 11.6 40.0468 12.016 39.6148 12.36C39.1828 12.704 38.6708 12.972 38.0788 13.164C37.4948 13.348 36.8628 13.44 36.1828 13.44C35.9428 13.44 35.7108 13.428 35.4868 13.404C35.2628 13.38 35.0428 13.348 34.8268 13.308C34.4428 13.54 34.2508 13.8 34.2508 14.088C34.2508 14.336 34.3628 14.52 34.5868 14.64C34.8188 14.752 35.1228 14.832 35.4988 14.88C35.8748 14.928 36.3028 14.96 36.7828 14.976C37.2628 14.984 37.7548 15.008 38.2588 15.048C38.7628 15.088 39.2548 15.16 39.7348 15.264C40.2148 15.36 40.6428 15.516 41.0188 15.732C41.3948 15.948 41.6948 16.244 41.9188 16.62C42.1508 16.988 42.2668 17.464 42.2668 18.048C42.2668 18.592 42.1308 19.12 41.8588 19.632C41.5948 20.144 41.2068 20.6 40.6948 21C40.1908 21.4 39.5668 21.72 38.8228 21.96C38.0868 22.208 37.2468 22.332 36.3028 22.332C35.3748 22.332 34.5668 22.24 33.8788 22.056C33.1908 21.88 32.6188 21.64 32.1628 21.336C31.7068 21.04 31.3668 20.696 31.1428 20.304C30.9188 19.912 30.8068 19.504 30.8068 19.08C30.8068 18.504 30.9788 18.024 31.3228 17.64C31.6748 17.248 32.1548 16.936 32.7628 16.704C32.4348 16.536 32.1748 16.312 31.9827 16.032C31.7908 15.752 31.6948 15.384 31.6948 14.928C31.6948 14.744 31.7268 14.556 31.7908 14.364C31.8628 14.164 31.9628 13.968 32.0908 13.776C32.2268 13.584 32.3948 13.404 32.5948 13.236C32.7948 13.06 33.0308 12.904 33.3027 12.768C32.6788 12.432 32.1868 11.984 31.8268 11.424C31.4748 10.864 31.2988 10.208 31.2988 9.456C31.2988 8.848 31.4188 8.3 31.6588 7.812C31.9068 7.316 32.2468 6.896 32.6788 6.552C33.1188 6.2 33.6348 5.932 34.2268 5.748C34.8268 5.564 35.4788 5.472 36.1828 5.472C36.7108 5.472 37.2068 5.528 37.6708 5.64C38.1348 5.744 38.5588 5.9 38.9428 6.108H42.4828ZM52.0835 10.428C52.0835 10.044 52.0275 9.684 51.9155 9.348C51.8115 9.004 51.6515 8.704 51.4355 8.448C51.2195 8.192 50.9435 7.992 50.6075 7.848C50.2795 7.696 49.8955 7.62 49.4555 7.62C48.5995 7.62 47.9235 7.864 47.4275 8.352C46.9395 8.84 46.6275 9.532 46.4915 10.428H52.0835ZM46.4315 12.216C46.4795 12.848 46.5915 13.396 46.7675 13.86C46.9435 14.316 47.1755 14.696 47.4635 15C47.7515 15.296 48.0915 15.52 48.4835 15.672C48.8835 15.816 49.3235 15.888 49.8035 15.888C50.2835 15.888 50.6955 15.832 51.0395 15.72C51.3915 15.608 51.6955 15.484 51.9515 15.348C52.2155 15.212 52.4435 15.088 52.6355 14.976C52.8355 14.864 53.0275 14.808 53.2115 14.808C53.4595 14.808 53.6435 14.9 53.7635 15.084L54.6155 16.164C54.2875 16.548 53.9195 16.872 53.5115 17.136C53.1035 17.392 52.6755 17.6 52.2275 17.76C51.7875 17.912 51.3355 18.02 50.8715 18.084C50.4155 18.148 49.9715 18.18 49.5395 18.18C48.6835 18.18 47.8875 18.04 47.1515 17.76C46.4155 17.472 45.7755 17.052 45.2315 16.5C44.6875 15.94 44.2595 15.252 43.9475 14.436C43.6355 13.612 43.4795 12.66 43.4795 11.58C43.4795 10.74 43.6155 9.952 43.8875 9.216C44.1595 8.472 44.5475 7.828 45.0515 7.284C45.5635 6.732 46.1835 6.296 46.9115 5.976C47.6475 5.656 48.4755 5.496 49.3955 5.496C50.1715 5.496 50.8875 5.62 51.5435 5.868C52.1995 6.116 52.7635 6.48 53.2355 6.96C53.7075 7.432 54.0755 8.016 54.3395 8.712C54.6115 9.4 54.7475 10.188 54.7475 11.076C54.7475 11.524 54.6995 11.828 54.6035 11.988C54.5075 12.14 54.3235 12.216 54.0515 12.216H46.4315ZM59.7438 7.2C59.9918 6.952 60.2518 6.724 60.5238 6.516C60.8038 6.3 61.0958 6.12 61.3998 5.976C61.7118 5.824 62.0438 5.708 62.3958 5.628C62.7478 5.54 63.1318 5.496 63.5478 5.496C64.2198 5.496 64.8158 5.612 65.3358 5.844C65.8558 6.068 66.2878 6.388 66.6318 6.804C66.9838 7.212 67.2478 7.704 67.4238 8.28C67.6078 8.848 67.6998 9.476 67.6998 10.164V18H64.7358V10.164C64.7358 9.412 64.5638 8.832 64.2198 8.424C63.8758 8.008 63.3518 7.8 62.6478 7.8C62.1358 7.8 61.6558 7.916 61.2078 8.148C60.7598 8.38 60.3358 8.696 59.9358 9.096V18H56.9718V5.688H58.7838C59.1678 5.688 59.4198 5.868 59.5398 6.228L59.7438 7.2Z" fill="white"/>
</svg>
